<svg width="28" height="28" viewBox="0 0 28 28" fill="none" xmlns="http://www.w3.org/2000/svg">
<path fillRule="evenodd" clipRule="evenodd" d="M24.4303 6.55213C23.3002 5.58175 21.9556 4.81232 20.4745 4.2884C18.9933 3.76448 17.405 3.4965 15.8016 3.49997C9.07805 3.49997 3.60463 8.16805 3.60191 13.9061C3.60191 15.7399 4.16312 17.5297 5.22981 19.1085L3.5 24.4999L9.96674 23.0521C11.7555 23.8828 13.7595 24.3183 15.7962 24.3191H15.8016C22.5238 24.3191 27.9972 19.651 28 13.913C28.0046 12.5457 27.6915 11.1912 27.0788 9.92778C26.4661 8.66433 25.5659 7.51701 24.4303 6.55213M15.8016 22.5629H15.7975C13.9815 22.5631 12.1988 22.1463 10.6366 21.3562L10.267 21.1684L6.42967 22.0274L7.45288 18.8361L7.21236 18.5092C6.19702 17.1303 5.65952 15.5345 5.66192 13.9061C5.66464 9.13714 10.2127 5.25731 15.8057 5.25731C17.1377 5.25479 18.4571 5.47765 19.6874 5.91301C20.9178 6.34837 22.0347 6.98757 22.9736 7.79363C23.9175 8.59584 24.6656 9.54969 25.1748 10.6C25.6839 11.6504 25.944 12.7764 25.9399 13.913C25.9372 18.6819 21.3892 22.5629 15.8016 22.5629ZM21.3634 16.0842C21.0576 15.9532 19.5602 15.3249 19.2803 15.238C19.0017 15.151 18.7992 15.1081 18.5954 15.3678C18.3916 15.6275 17.8073 16.2129 17.6293 16.3867C17.4512 16.5606 17.2732 16.5815 16.9689 16.4517C16.6645 16.3218 15.682 16.0471 14.5175 15.1615C13.6112 14.4717 12.9997 13.6209 12.8217 13.3601C12.6437 13.0993 12.8026 12.959 12.9562 12.8292C13.0934 12.7133 13.2606 12.5255 13.4128 12.3736C13.565 12.2218 13.6152 12.1139 13.7171 11.9401C13.8191 11.7662 13.7688 11.6143 13.6913 11.4845C13.6152 11.3535 13.0051 10.0738 12.751 9.55329C12.5051 9.04904 12.2537 9.11627 12.0661 9.10931C11.8719 9.10254 11.6776 9.09945 11.4832 9.10004C11.3286 9.1034 11.1766 9.13397 11.0365 9.18982C10.8964 9.24567 10.7714 9.32561 10.6693 9.42462C10.3893 9.68543 9.60257 10.3137 9.60257 11.5935C9.60257 12.8732 10.6951 14.1101 10.8473 14.284C10.9995 14.4578 12.997 17.0834 16.0544 18.2101C16.7827 18.4779 17.3507 18.6379 17.7923 18.7584C18.522 18.9567 19.1865 18.9277 19.7124 18.8616C20.298 18.7874 21.5155 18.2333 21.7697 17.6259C22.0238 17.0185 22.0238 16.498 21.9477 16.3891C21.8716 16.2801 21.6664 16.214 21.3634 16.0842" fill="#4ECB71"/>
</svg>
